<svg height="1034.2687" width="1024" xmlns="http://www.w3.org/2000/svg" xmlns:xlink="http://www.w3.org/1999/xlink"><linearGradient id="a"><stop offset="0" stop-color="#a45d2d"/><stop offset="1" stop-color="#502d16"/></linearGradient><linearGradient id="b" gradientTransform="matrix(-1 0 0 .74696611 3555.2279 -322.2765)" gradientUnits="userSpaceOnUse" x1="1746.2279" x2="1584.7279" y1="-1229.6378" y2="-1348.6377"><stop offset="0" stop-color="#502d16"/><stop offset="1" stop-color="#8e5127"/></linearGradient><linearGradient id="c" gradientTransform="matrix(-1 0 0 .74696611 3555.2279 -322.2765)" gradientUnits="userSpaceOnUse" x1="1716.25" x2="1716.75" y1="-1182.3878" y2="-1277.3877"><stop offset="0" stop-color="#3d2311"/><stop offset="1" stop-color="#3c2311" stop-opacity="0"/></linearGradient><linearGradient id="d" gradientUnits="userSpaceOnUse" x1="1879.313" x2="1812.1378" y1="-1316.7991" y2="-1283.9186"><stop offset="0" stop-color="#784421"/><stop offset="1" stop-color="#d38d5f" stop-opacity="0"/></linearGradient><linearGradient id="e" gradientUnits="userSpaceOnUse" x1="1675.1121" x2="1722.6063" y1="-1541.2544" y2="-1424.7698"><stop offset="0" stop-color="#a0892c"/><stop offset="1" stop-color="#d3bc5f"/></linearGradient><linearGradient id="f" gradientTransform="matrix(1.3972131 0 0 1.2795694 2105.4609 -1998.7032)" gradientUnits="userSpaceOnUse" x1="-314.55325" x2="-181.6911" xlink:href="#a" y1="610.98352" y2="610.98352"/><linearGradient id="g" gradientTransform="matrix(.60212781 0 0 .55142377 -1530.5987 -604.54866)" gradientUnits="userSpaceOnUse" x1="-314.55325" x2="-181.6911" xlink:href="#a" y1="610.98352" y2="610.98352"/><linearGradient id="h" gradientTransform="matrix(.60212781 0 0 .60424248 -1377.558 -608.72937)" gradientUnits="userSpaceOnUse" x1="-523.5" x2="-518.5" xlink:href="#i" y1="520.86218" y2="843.86218"/><linearGradient id="i"><stop offset="0" stop-color="#a36621"/><stop offset="1" stop-color="#a36621" stop-opacity="0"/></linearGradient><linearGradient id="j" gradientTransform="matrix(.60306743 0 0 .55142377 -1145.2742 -555.03862)" gradientUnits="userSpaceOnUse" x1="-314.55325" x2="-181.6911" xlink:href="#a" y1="610.98352" y2="610.98352"/><linearGradient id="k" gradientTransform="matrix(.60212781 0 0 .55142377 -1370.5988 -604.54867)" gradientUnits="userSpaceOnUse" x1="-314.55325" x2="-181.6911" xlink:href="#a" y1="610.98352" y2="610.98352"/><radialGradient id="l" cx="-203.36642" cy="464.11044" gradientTransform="matrix(.0006581 .1308644 -.62621496 .00264093 -1230.1815 -275.70339)" gradientUnits="userSpaceOnUse" r="64.146484" xlink:href="#m"/><linearGradient id="m"><stop offset="0" stop-color="#ffe680"/><stop offset="1" stop-color="#d3bc5f"/></linearGradient><linearGradient id="n" gradientUnits="userSpaceOnUse" x1="-272.3269" x2="-222.79823" y1="548.99854" y2="552.75909"><stop offset="0" stop-color="#786721"/><stop offset="1" stop-color="#786721" stop-opacity="0"/></linearGradient><linearGradient id="o" gradientTransform="matrix(.60212168 0 0 .55142377 -1090.9001 1303.2359)" gradientUnits="userSpaceOnUse" x1="-314.55325" x2="-181.6911" xlink:href="#a" y1="610.98352" y2="610.98352"/><linearGradient id="p" gradientTransform="matrix(1 0 0 .91258689 -154.94873 -1089.8792)" gradientUnits="userSpaceOnUse" x1="-313.23526" x2="-181.21172" xlink:href="#a" y1="611.12756" y2="611.12756"/><linearGradient id="q" gradientTransform="matrix(1 0 0 .91258689 -154.94862 -1089.8852)" gradientUnits="userSpaceOnUse" x1="-313.23526" x2="-181.21172" xlink:href="#a" y1="611.12756" y2="611.12756"/><radialGradient id="r" cx="-203.36642" cy="464.11044" gradientTransform="matrix(.00109295 .21657596 -1.0400034 .00437064 78.252999 -545.65789)" gradientUnits="userSpaceOnUse" r="64.146484" xlink:href="#m"/><linearGradient id="s" gradientTransform="matrix(1 0 0 .91258689 -154.94862 -1089.8852)" gradientUnits="userSpaceOnUse" x1="-211.42493" x2="-194.10081" y1="737.69965" y2="535.11359"><stop offset="0"/><stop offset="1" stop-opacity="0"/></linearGradient><linearGradient id="t" gradientUnits="userSpaceOnUse" x1="-424.282101" x2="-419.282101" xlink:href="#i" y1="-575.94192" y2="-252.94192"/><g transform="translate(374.927 93.343605)"><path d="m-374.927-93.343605h1024v1024h-1024z" fill="none"/><g transform="matrix(1.4499256 0 0 1.4499256 908.25215 1515.4898)"><path d="m-402.21721-598.50281c-.49063-.0148-.97932-.0133-1.46875.0312-.8623.0783-1.94203.62937-2.53125.625-.68748-.006-4.1875.9257-4.75 1.78125s-.59375 2.96875-.59375 2.96875-1.40836-3.32122-2.96875-4.1875c-.71734-.39826-1.6612-.25341-2.5-.21875-17.68545.73093-53.42805 5.00848-52.21875 8.84375-.001.0196-.00092.0118 0 .0312 3.61143 76.59218-1.35403 122.27052 0 172.28125-.005.49419-.0625.84534-.0625 1.125 0 .12374.018.24191.0625.375.007.0227.0227.0396.0312.0625.0556.1465.14288.31216.25.46875.11012.16097.24295.32938.40625.5.13124.13712.27268.26349.4375.40625.0872.0756.18481.14172.28125.21875.0572.0458.0958.10995.15625.15625.13801.10578.28273.20426.4375.3125.14047.0984.28335.21227.4375.3125.4408.28685.91912.57512 1.46875.875.031.0169.0624.0143.0937.0312.42662.23098.91777.45074 1.40625.6875.75546.36614 1.57153.74978 2.46875 1.125.93091.38931 1.92483.79481 3 1.1875.14737.0538.28751.10245.4375.15625.63197.22673 1.32255.43041 2 .65625.54875.18296 1.04729.38089 1.625.5625.11671.0367.22588.0571.34375.0937 6.35151 1.97498 14.40404 3.82968 23.5625 5.15625 3.31261.47982 6.73223.90098 10.3125 1.21875 1.58522.1407 3.21354.27187 4.84375.375.44609.0286.89447.0369 1.34375.0625.15764.009.31073.0228.46875.0312.26854.0146.54286.0178.8125.0312.13503.007.27096.0249.40625.0312.22868.011.45805.0211.6875.0312 1.57442.0687 3.17354.12686 4.78125.15625 1.12962.021 2.26146.0312 3.40625.0312 3.30869 0 6.56269-.0848 9.75-.25 1.06237-.0551 2.11001-.11602 3.15625-.1875 18.81698-1.28481 34.92176-5.16899 44.5-8.75 1.06358-.39834 2.07192-.76872 2.96875-1.15625.88772-.38335 1.69207-.7911 2.40625-1.15625.3598-.18444.71773-.35294 1.03125-.53125.30544-.17361.58345-.36436.84375-.53125.26593-.1712.53296-.33689.75-.5.44518-.3344.76891-.64336 1-.9375.10888-.13596.18819-.24885.25-.375.0103.0321.028.0133.0312-.0312.004-.0556.002-.14017 0-.25-.008-.22102 0-.5 0-.5v-173.5625c0-.0195.001-.0118 0-.0312-.005-.0935-.0295-.18944-.0625-.28125-.0108-.0308-.0173-.0631-.0312-.0937-.0177-.0381-.0402-.0871-.0625-.125-.007-.0116-.0242-.0196-.0312-.0312-.0114-.0176-.0188-.0449-.0312-.0625-.0434-.063-.10012-.12532-.15625-.1875-.004-.005-.0268.005-.0312 0-.0134-.0142-.0172-.0484-.0312-.0625-.0707-.0739-.16219-.14568-.25-.21875-.0101-.008-.0209-.0231-.0312-.0312-.049-.0397-.10231-.0543-.15625-.0937-.0112-.008-.0198-.0232-.0312-.0312-.10017-.0716-.22768-.14796-.34375-.21875-.18881-.11516-.39578-.2307-.625-.34375-.17901-.0883-.35996-.163-.5625-.25-7.83827-3.36688-32.9255-5.7774-46.9375-7.21875-3.90272-.40144-7.85687-.10862-11.78125-.25-1.47443-.0531-2.93436-.29927-4.40625-.34375z" fill="url(#p)" stroke="#000" stroke-linejoin="round" stroke-width="5.517525"/><path d="m-403.6887-598.46409c-.8623.0783-1.92606.60409-2.51528.59972-.68748-.006-4.21339.94718-4.77589 1.80273s-.59375 2.96592-.59375 2.96592-1.39948-3.34178-2.95987-4.20806c-.71734-.39826-1.6693-.24801-2.5081-.21335-17.68545.73093-53.42883 5.00647-52.21953 8.84174-.001.0196-.00092.0376 0 .057 3.61143 76.59218-1.35403 122.24004 0 172.25077-.005.49419-.0565.87003-.0565 1.14967 0 4.4745 29.37388 15.30542 65.96274 15.30542 35.29273 0 64.67605-10.15249 66.67553-14.4072.0625.28518.012-.73605.012-.73605-.0241-57.66092-.3037-115.13796 0-173.56261.0001-.0195.001-.0376 0-.057-.25819-4.44747-32.66198-7.5295-49.34911-9.24603-3.90272-.40144-7.85508-.0951-11.77946-.23648-1.96591-.0708-3.93504-.48427-5.89278-.30619z" fill="url(#q)"/><path d="m-404.22987-595.54831c-1.81789.004-3.62288.006-5.4375.0285-18.3759.53897-37.6016.69499-54.625 5.13331-2.27411.4759-4.46299 2.26109-1.28125 3.05146 12.94881 4.24742 28.56679 4.42375 43.03125 5.30441 8.98518.23603 18.0995.36673 27.1875.28518 13.25452 9.80815 10.66813 22.82268 10.90625 24.12652.25 1.36888-.5 37.75828-.5 37.75828s4.66551-42.75675 4.66551-50.05745c0-6.38811 1.85353-10.88536 4.36574-12.42624 10.35535-.59421 20.60517-1.66397 30.5-3.47923 2.16341-.70203 7.40568-1.40025 6.4375-3.27961-7.14289-3.73649-17.97945-3.95899-27.1875-5.07627-12.54862-.9826-25.3373-1.39843-38.0625-1.36887z" fill="url(#r)"/><path d="m-188.26719 549.4325c0 2.05025-19.86555 3.71231-44.37095 3.71231s-44.37095-1.66206-44.37095-3.71231c0-2.05026 19.86555-3.71232 44.37095-3.71232s44.37095 1.66206 44.37095 3.71232z" fill="#ffe680" transform="matrix(1.3167331 0 0 1.4340652 -94.787851 -1376.8863)"/><path d="m-188.26719 549.4325c0 2.05025-19.86555 3.71231-44.37095 3.71231s-44.37095-1.66206-44.37095-3.71231c0-2.05026 19.86555-3.71232 44.37095-3.71232s44.37095 1.66206 44.37095 3.71232z" fill="url(#n)" opacity=".283186" transform="matrix(1.2081674 0 0 .83653803 -119.82341 -1048.5451)"/><path d="m-399.44077-591.66923c-21.8579.19886-39.54046 1.71253-39.52297 3.31298.0175 1.60043 17.72893 2.73185 39.58683 2.533 21.85791-.19884 39.64001-1.65316 39.62253-3.2536-.0175-1.60043-17.82848-2.79121-39.68639-2.59238zm-1.86373 1.40327c6.10167-.0554 10.98175.37302 10.98843.98496.007.61193-4.86241 1.18943-10.96407 1.24494-6.10167.0554-11.08129-.43239-11.08797-1.04432-.007-.61195 4.96194-1.13008 11.06361-1.18558z" fill="#786721" opacity=".283186"/><path d="m-457.88612-585.55006c-1.25 1.8822-1.0625 3.33664-1.0625 3.33664l-2-4.5059s2.8125.34223 3.0625.28518c.25-.057 20.19089 3.39715 17.66498 3.00337-6.0688-.94607-4.7689 20.19041-4.72748 21.92167.0409 1.71068.375 4.56293.25 7.07254s0 4.33478 0 6.38811c0 2.05332-4.16682-4.08707-4.16682-7.50927s-.5-16.19841-.375-19.62061c.125-3.42221-1.625-8.09921-2.375-8.78365-.75-.68445-6.27068-1.58808-6.27068-1.58808z" fill="#e4cd6c"/><path d="m-451.80347-584.04157-.27015-.21347c.21272.0954.37921.20347.46875.28517.75.68444 2.5 5.36146 2.375 8.78366-.125 3.42219.375 16.19842.375 19.62062 0 2.8554 2.88284 7.59794 3.84375 7.89958-1.19426-4.22277-3.0183-7.01407-2.9375-8.78365.0884-1.93589-.19286-13.48275-.28125-15.25731-.0884-1.77457.43659-5.30861-.0937-7.72847-.53033-2.41986-3.47985-4.60613-3.47985-4.60613z" fill="#a80"/><path d="m-395.35487-581.74543c13.25452 10.29249 10.66813 22.82277 10.90625 24.12651.25002 1.36889-.5 37.7583-.5 37.7583s1.11086-16.7927 1.84375-31.99758c-.0211-4.39638-.0558-12.97396-.46875-16.36953-.38515-3.16687-2.62896-7.46659-4.8125-9.95291-.68233-.77693-2.7576-2.24661-3.73729-2.76201-2.11-1.11003-3.23146-.80278-3.23146-.80278z" fill="#a0892c"/><path d="m-364.47987-595.17757-4 .74148c.002.0281-.002.0575 0 .0855.77054.056 1.5437.1109 2.3125.17111 9.20805 1.11727 20.04461 1.33978 27.1875 5.07627.96818 1.87936-4.27409 2.57758-6.4375 3.27961-7.37132 1.35231-14.93155 2.30094-22.59375 2.93738 1.05084 46.73778-6.24468 110.09232-3.3125 121.68777 3.18198 12.58328 10.95098-5.15679 12.71875-2.25295 1.76776 2.90384 3.53798 45.82674-4.59375 50.02117s-15.19733 8.04385-32.875 9.01179c-17.67767.96796-16.625 3.8785-16.625 3.8785l.0625.37074c3.02894.14959 6.13121.25666 9.28125.25666 35.29273 0 64.68802-10.14703 66.6875-14.40176.0625.28518 0-.74148 0-.74148v-173.56262c0-.0195.001-.0376 0-.057-.16642-2.86672-13.72634-4.94595-27.8125-6.50219z" opacity=".19469"/><path d="m-380.38612-596.7746c.26702.96298.32639 1.14029.5 1.73962 4.59954.21306 9.16788.4992 13.71875.85555 9.20805 1.11727 20.04461 1.33978 27.1875 5.07627.96818 1.87936-4.27409 2.57758-6.4375 3.27961-9.89483 1.81524-20.14465 2.88502-30.5 3.47924-.38887.23851-.80942.57956-1.25.9411.703 6.4801.95959 13.23615 1.59375 18.25173 1.06066 8.38886-7.41361 75.17997-11.65625 89.37649-4.24264 14.19653-9.91665 26.14014-3.90625 30.65721 6.01041 4.51708 12.38052-.0107 15.5625 4.5059 3.18198 4.51708-.34499 18.38316-7.0625 22.90024-6.71752 4.51707-21.92036 10.32363-36.0625 10.32363s-20.5-1.93925-20.5-1.93925-1.44501-.69183-3.65625-1.7111c-.3757 1.38609-.82684 2.91473-1.3125 4.59145 11.21393 2.57305 25.35097 4.53443 40.8125 4.53443 35.29273 0 64.68802-10.14706 66.6875-14.40177.0625.28519 0-.74148 0-.74148v-173.56261c0-.0195.001-.0375 0-.057-.23311-4.01548-26.29067-6.46482-43.71875-8.09921zm-87.09375 178.18261c-.39826-.0243-.82907.0329-1.25.1711-.17172.72187-.3443 1.41229-.53125 2.05332-.005.49419-.0625.86108-.0625 1.14074 0 1.97992 5.75951 5.20281 15.34375 8.18476.39809-1.99913.95789-4.59277 1.85041-5.97469-5.99487-2.56052-12.89653-5.42594-15.35041-5.57523z" fill="url(#s)" opacity=".19469"/><path d="m-338.88612-589.04613c-.67164 1.46278-4.63827 2.46572-6.53125 3.07999-9.89483 1.81524-20.14465 3.02761-30.5 3.62183-2.19818 1.34827-3.29013 3.43506-4.09375 8.52698.83025-4.56525 1.90938-4.79165 4.09375-6.13145 4.37277-.25091 5.28922-3.09624 13.04308-1.02747 3.03202.80895 5.27615 2.7507 9.91364-.50913 2.18457-1.5356 4.8657-1.45142 7.54328-1.94263 3.71589-1.37383 10.87898-4.28373 6.53125-5.61812zm-128.3125.51334c-.52319 1.25599-.0436 3.17882 1.625 3.5933 2.20851 2.23316 4.15881 2.00179 6.15625 1.68258l-1.1875-2.68071c-1.69521-.41323-3.35098-.86675-4.96875-1.3974-.6818-.16937-1.43966-.42533-1.625-1.19777zm9.1875 3.19405c-.54213.87474-.77733 1.63822-.875 2.1959 3.0695.6743 6.24225 1.19558 9.46875 1.59703-.27585-.37141-.99264-1.58593-1.5625-2.59516-2.39054-.32692-4.72902-.71635-7.03125-1.19777zm16.28125 2.13888c-.50773.29866-1.79757 1.58414-1.71875 2.25294 6.956.60727 14.06179.89514 20.90625 1.31184 9.23228 4.40778 18.16178 1.41814 27.1875.28519 9.11248 6.74311 10.73428 13.86148 10.9375 18.08062-.10494-4.84065-1.46748-13.46848-10.9375-20.47616-9.088.0816-18.07732-.3617-27.0625-.59768-6.28261-.38251-12.9079-.34869-19.3125-.85675z" fill="#fc0"/><path d="m-460.37585-592.3354c-5.64083 1.12682-9.27221 2.3965-8.875 3.65625-.001.0196-.00092.0431 0 .0625 3.61143 76.59218 6.57059 149.72024 0 172.25-.005.49419-.0625.84535-.0625 1.125 0 1.47606 3.24607 3.66375 8.84375 5.90625 2.86459-1.81631 5.79852-4.82454 7.5-9.90625 3.88909-11.61535-6.63917-23.94798-.375-33.5625 2.18244-3.34972 9.16347-2.13235 11.3125-5.5 6.40769-10.04122-.3554-18.71135-1.0625-34.84375-.70711-16.13242 3.2022-27.4172-6.34375-28.0625-9.54594-.6453-9.1973-18.69458-8.84375-52.25 0 0-.33885-5.21789-1.1875-12.21875-.83107-.18948-1.65374-.38253-2.46875-.59375.44407.11595.89416.23416 1.34375.34375l1.1875 2.6875c-1.99744.31921-3.94774.54566-6.15625-1.6875-1.6686-.41448-2.14819-2.33776-1.625-3.59375.009.0357.0203.0602.0312.0937-.0537-.78463 1.39277-1.65856 2.875-1.96875 1.33904-.34911 2.69769-.6391 4.0625-.9375-.0487-.33695-.10547-.6597-.15625-1z" fill="#d4aa00" opacity=".19469"/><path d="m-416.32239-597.17065c-6.42047.27102-16.98075 1.31654-25.08471 2.179-.001.29541.024.60421.0312.90625 7.5518-.66676 15.234-.96732 22.875-1.1875-.01-.50715 2.19386-1.41622 2.17846-1.89775zm-20.58471 14.304c4.82464.31065 9.66304.55687 14.375.84375-4.71123-.28685-9.55076-.5368-14.375-.84375zm14.375.84375c1.28957.0339 2.58057.0645 3.875.0937.00029-.0108-.00029-.0205 0-.0312-1.29443-.0292-2.58543-.0287-3.875-.0625zm-16.9375 1.375c.00069.003.0312.0937.0312.0937 1.25 22.35838.25 39.93707.25 44.5s10.75 15.04918 10.75 23.71875c0 8.66958 2 23.96154 1.25 34-.75 10.03845-6 19.60884-5.75 25.3125.25 5.70367.75 6.61779 1.75 16.65625 1 10.03844.5 22.58109-1 24.40625-1.5 1.82519-4 1.84988-3.25 3.21875.39245.7163 1.249 3.53412 2.0625 6.40625 4.4782.72414 9.24338 1.33051 14.25 1.75-2.00898-5.22594-3.42114-11.50363-1.0625-16.375 4.75-9.8103 6.25-9.14249 6.25-22.375s-4.25-19.82756-4.5-25.53125c-.25-5.70365 4.5-42.89141 3.5-67.53125-1-24.63986-4.25-23.95805-4-37.875.0433-2.41335.11683-5.21897.1875-7.9375-1.25952-.35046-2.51131-.83119-3.78125-1.4375-5.5431-.33747-11.26997-.59343-16.9375-1z" fill="url(#t)" opacity=".522124"/><path d="m-404.88612-581.74543c.73947 20.71728 1.67114 62.84861 1.1875 77.85508-.5 15.51397-7 26.00872-4.5 41.29456 2.5 15.28582 5.25 25.78056 1.75 34.67829s-6 14.82954-3.75 24.41171c.27031 1.15116.54486 2.32817.84375 3.50775 1.97423.0632 3.97796.0855 6 .0855 2.95513 0 5.85909-.0666 8.71875-.19963-.93649-5.90282-2.44528-11.82526-.8125-13.88842 3.25-4.10666 10-4.56294 8.25-10.95105s-12-8.21329-12-21.44579c0-13.23252 8.5-64.33739 10.25-69.12846 1.75-4.79108-4.5-32.85313-4.25-49.05154.11659-7.55418.56826-11.62688.90625-14.6014-.91391-.87691-1.92829-1.72735-3.0625-2.56665-3.17873.0287-6.35273.0188-9.53125 0z" fill="#c8ab37" opacity=".137168"/><path d="m-402.31577-591.55767c-21.8579.17575-39.54046 1.51353-39.52297 2.92801.0175 1.41448 17.72893 2.41443 39.58683 2.23868 21.85791-.17574 39.64001-1.46106 39.62253-2.87553-.0175-1.41449-17.82848-2.4669-39.68639-2.29116zm-1.61373.53448c6.10167-.049 28.72043.13656 28.73843 1.17297.0189 1.03637-13.10349 2.01444-29.54657 2.10847-16.44312.094-29.86247-.73234-29.88047-1.76871-.0189-1.0364 24.58694-1.46368 30.68861-1.51273z" fill="#786721" opacity=".190265"/><path d="m-464.37585-591.49165c-.73887.20923-1.44359.41326-2.03125.625-.0474.0171-.10989.0453-.15625.0625-.27175.10061-.547.21157-.78125.3125-.0316.0137-.0628.0488-.0937.0625-.2372.105-.46208.20733-.65625.3125-.096.0523-.16504.10399-.25.15625-.10914.0671-.22205.12042-.3125.1875-.16898.12577-.30617.24949-.40625.375-.14052.17623-.22314.35613-.21875.53125.001.0584.0129.1293.0312.1875-.001.0196-.00092.0431 0 .0625.0564 1.19675.11937 2.39279.15625 3.59375.008.17903-.008.35256 0 .53125 3.23984 74.075-1.48535 119.03514-.15625 168.125-.005.49419-.0625.8766-.0625 1.15625 0 .13983.0371.28578.0937.4375.0531.14143.1169.28664.21875.4375.009.0129.0223.0183.0312.0312.0817.11728.17113.2213.28125.34375.13798.15343.31842.30788.5.46875s.36977.33245.59375.5.48482.35777.75.53125c.53037.34696 1.12449.69637 1.8125 1.0625 4.36562-7.52484 5.46461-13.622 4.84375-22.6875-.75-10.95104-.75-15.4928-1-25.53125-.25-10.03846 10-30.59223 8-46.5625s-4.75-7.74521-9.25-25.3125c-3.96703-15.48667-3.07616-32.68642-2.125-55.53125-.33592-.10377-.66753-.20344-1-.3125-3.12356-.77592-1.07148-2.5178 1.15625-3.03125.016-.3978.0154-.72367.0312-1.125z" fill="#ffd42a" opacity=".176991"/><path d="m-448.13612-446.91071c2 39.92567-2.80511 24.60906-5.84375 39.86864 2.93049.91212 6.21899 1.79978 9.8125 2.62368 1.16415-4.01916 2.27231-7.84394 2.09375-8.44142-.75-2.50962-6.0625-34.0509-6.0625-34.0509z" fill="#e4cc6c"/></g><g transform="matrix(2.4170508 0 0 1.9440157 3042.9318 -2407.1179)"><path d="m-1240.7261 1440.173c-.5201.047-1.1447.3776-1.5.375-.4146 0-2.5668.5767-2.9063 1.0937-.3389.517-.375 1.7813-.375 1.7813s-.8402-2.0078-1.7812-2.5313c-.4327-.2406-.9942-.1459-1.5-.125-10.6655.4417-32.198 3.0263-31.4688 5.3438-.0005.012-.0004.02 0 .031 1.0032 21.3155 1.2824 38.5641.9688 54.0312-.3559 14.2366-1 27.5357-1 39.9688 0 22 1.013 23.0312 1 40.0312.013 17-1 18-1 40 0 12.4332.6441 25.7635 1 40-.2818 13.9173-1.0018 26.3929-1 38.7813.0005 3.7366.054 7.4726.1562 11.25 0 .2986-.031.5497-.031.7188 0 2.7036 17.6877 9.25 39.7188 9.25 21.1972 0 38.8419-6.1053 40.125-8.6876 0 .0004 0-.01 0-.031.01-.033.032-.09.031-.1562v-.2813c-.01-16.9416-.9777-33.8761-1-50.8438 0 0 1.0131-40 0-80 1.0131-40 0-80 0-80-.023-17.9271.9059-35.8946 1-54.0312.0001-.012 0-.019 0-.031-.1556-2.6874-19.7178-4.5566-29.7812-5.5938-2.3537-.2426-4.7271-.071-7.0938-.1562-.8892-.032-1.7687-.1607-2.6562-.1875h-.9063z" fill="url(#o)" stroke="#000" stroke-linejoin="round" stroke-width="3.690602"/><g transform="matrix(.99998982 0 0 1 439.69402 1907.7979)"><path d="m-1719.0001-247.625c-.2818 13.91731-1.0017 26.39291-.9999 38.78125.0005 3.73661.054 7.47267.1562 11.25 0 .29861-.031.54978-.031.71875 0 2.70368 17.6876 9.25 39.7188 9.25 21.2507 0 38.9211-6.14787 40.125-8.71875.018.0862.033-.0235.031-.15625 0-.13273 0-.28125 0-.28125-.01-16.9416-.977-33.87608-.9993-50.84375z" fill="url(#g)"/><path d="m-1659.9995-247.625c-.6192 11.15161-1.6281 19.98222-.8755 22.96875 1.916 7.60335 6.5919-3.12962 7.6562-1.375 1.0644 1.75462 2.1151 27.68429-2.7812 30.21875-4.8964 2.53445-9.137 4.85263-19.7812 5.4375-10.6442.58488-10.0313 2.34375-10.0313 2.34375l.062.25c1.8238.0904 3.697.15625 5.5938.15625 21.2508 0 38.9211-6.14786 40.125-8.71875.018.0862.036-.0227.031-.15625 0-.13355-.031-.28125-.031-.28125l-.9676-50.84375z" opacity=".19469"/><path d="m-1666.9996-247.625c-1.0391 6.80738-2.6738 12.67312-3.4692 15.34375-2.5544 8.57814-5.9627 15.80184-2.3437 18.53125 3.6191 2.72941 7.459-.01 9.375 2.71875 1.916 2.72941-.2052 11.11434-4.25 13.84375s-13.2035 6.25-21.7187 6.25c-8.5154 0-12.3438-1.1875-12.3438-1.1875s-.8872-.41536-2.2188-1.03125c-.2262.83753-.4887 1.7681-.7812 2.78125 6.7523 1.55475 15.284 2.75 24.5938 2.75 21.2507 0 38.9211-6.14787 40.125-8.71875.019.0862.036-.0227.031-.15625 0-.13355-.031-.28125-.031-.28125l-.9681-50.84375zm-51.7816 48.6875c-.2399-.0147-.4965.0415-.75.125-.1033.43618-.2001.83141-.3126 1.21875 0 .29861-.062.51852-.062.6875 0 1.19636 3.4791 3.16693 9.25 4.96875.2398-1.20796.5875-2.78998 1.125-3.625-3.6097-1.54717-7.7725-3.28479-9.25-3.375z" opacity=".19469"/><path d="m-1718.0001-247.625c.5574 23.39261.4853 42.01765-1.8437 50.03125 0 .29861-.031.51852-.031.6875 0 .8919 1.942 2.20748 5.3125 3.5625 1.7249-1.0975 3.5068-2.89817 4.5313-5.96875 2.3416-7.01849-4.0218-14.47175-.25-20.28125 1.3141-2.02404 5.5185-1.27763 6.8124-3.3125 3.8584-6.06733-.1992-11.31462-.625-21.0625-.055-1.26623.079-2.49654.094-3.65625z" fill="#d4aa00" opacity=".19469"/><path d="m-1694.9999-247.625c.3008 4.339.7369 8.99087.4687 12.59375-.4517 6.06566-3.6193 11.86611-3.4688 15.3125.1506 3.4464.4604 3.99683 1.0625 10.0625.6021 6.06565.3093 13.64716-.5937 14.75-.9032 1.10286-2.4204 1.11038-1.9688 1.9375.2363.43282.7602 2.13954 1.25 3.875 2.6965.43756 5.5792.80902 8.5938 1.0625-1.2096-3.15774-2.0765-6.96276-.6563-9.90625 2.8601-5.9278 3.7813-5.5356 3.7813-13.53125 0-7.99564-2.5683-11.95984-2.7188-15.40625-.089-2.04692 1.5717-10.85576 2.2502-20.75z" fill="#c87138" opacity=".248"/><path d="m-1679.9997-247.625c-.8591 7.87913-4.4414 13.85793-3.0941 22.125 1.5054 9.23634 3.1701 15.56112 1.0626 20.9375-2.1075 5.37639-3.6049 8.96005-2.25 14.75.1628.69558.3199 1.41224.5 2.125 1.1887.0382 2.4074.0625 3.625.0625 1.7792 0 3.528-.0446 5.25-.125-.564-3.56673-1.4833-7.1596-.5-8.40625 1.9568-2.48142 6.0224-2.76503 4.9687-6.625s-7.2187-4.94186-7.2187-12.9375c0-5.43191 2.8114-21.30062 4.6565-31.90625z" fill="#c8ab37" opacity=".137168"/><path d="m-1719.0001-247.625c-.2791 13.98957-1.0088 26.54924-.9999 39 0 3.66903.056 7.32348.1562 11.03125 0 .29861-.031.54977-.031.71875 0 .0845 0 .15832.031.25.032.0855.095.1901.1563.28125.049.0709.1212.14476.1875.21875.083.0927.172.18405.2812.28125.1094.0972.2402.21126.375.3125.135.10125.2778.20767.4376.3125.3194.20965.6794.43501 1.0937.65625 2.6286-4.54683 3.2802-8.24099 2.9063-13.71875-.4517-6.61708-.4433-9.37184-.5938-15.4375-.1293-5.20977 4.4807-15.10271 5-23.90625z" fill="#ffd42a" opacity=".176991"/><path d="m-1707.1351-216.03614c1.2043 24.12478-1.689 14.86984-3.5187 24.09032 1.7646.55115 3.7446 1.08751 5.9084 1.58534.701-2.42854 1.3682-4.73964 1.2607-5.10066-.4516-1.51642-3.6504-20.575-3.6504-20.575z" fill="#e4cc6c"/></g><g transform="matrix(1.0015605 0 0 1 282.02057 1747.7979)"><path d="m-1520.375-307.625c-.5192.0473-1.1453.37764-1.5.375-.414-.004-2.5363.57679-2.875 1.09375-.3386.51696-.375 1.78125-.375 1.78125s-.8416-2.00781-1.7812-2.53125c-.432-.24065-.995-.14594-1.5-.125-10.6489.44166-32.1658 3.02631-31.4376 5.34375-.0006.0118-.0005.0195 0 .0312 1.0016 21.31556 1.2803 38.56412.9672 54.0313h77.8784c-.023-17.92711.9045-35.89464.9984-54.0313.0001-.0118 0-.0195 0-.0312-.1553-2.68735-19.6709-4.55655-29.7188-5.59375-2.3499-.24257-4.7307-.0709-7.0937-.15625-.8878-.0321-1.77-.16063-2.6563-.1875h-.9062z" fill="url(#k)"/><path d="m-1523.9689-305.84376c-11.0646.32567-22.6559.44318-32.9062 3.125-1.3693.28756-2.6657 1.36617-.75 1.84375 7.7968 2.56647 17.1968 2.65537 25.9062 3.1875 5.4103.14262 10.9029.23678 16.375.1875 7.9809 5.9265 6.4192 13.77466 6.5626 14.5625.1505.82714-.3126 22.8125-.3126 22.8125s2.8126-25.83861 2.8126-30.25c0-3.85997 1.1123-6.56893 2.625-7.5 5.2171-.30042 10.3973-.79545 15.4374-1.59375l2.6876-.21875s.253 3.68911.094 7.90625c-.1592 4.21714-.062 7.78125-.062 7.78125s1.4032-4.88241 1.5625-6.40625c.1592-1.52384 1-4.81217 1-5.34375 0-.46256-.2394-3.80495-.3125-4.78125 1.154-.32379 2.1983-.7466 1.8438-1.4375-4.301-2.25775-10.8307-2.38739-16.375-3.0625-7.556-.59373-15.2441-.83036-22.9063-.8125-1.0946.002-2.1886-.0136-3.2814 0z" fill="url(#l)"/><path d="m-188.26719 549.4325c0 2.05025-19.86555 3.71231-44.37095 3.71231s-44.37095-1.66206-44.37095-3.71231c0-2.05026 19.86555-3.71232 44.37095-3.71232s44.37095 1.66206 44.37095 3.71232z" fill="#ffe680" transform="matrix(.79284157 0 0 .86652311 -1334.3743 -777.96695)"/><path d="m-188.26719 549.4325c0 2.05025-19.86555 3.71231-44.37095 3.71231s-44.37095-1.66206-44.37095-3.71231c0-2.05026 19.86555-3.71232 44.37095-3.71232s44.37095 1.66206 44.37095 3.71232z" fill="url(#n)" opacity=".283186" transform="matrix(.72747118 0 0 .50547181 -1349.4489 -579.56923)"/><path d="m-1517.8144-303.5054c-13.1612.12016-23.8083 1.03478-23.7978 2.00184.011.96705 10.6751 1.6507 23.8364 1.53055 13.1612-.12015 23.8683-.99891 23.8578-1.96596-.011-.96705-10.7351-1.68657-23.8964-1.56643zm-1.1221.84792c3.674-.0335 6.6124.22539 6.6164.59515.01.36975-2.9278.7187-6.6018.75225-3.674.0335-6.6723-.26127-6.6763-.63103-.01-.36976 2.9877-.68284 6.6617-.71637z" fill="#786721" opacity=".283186"/><path d="m-1553.0059-299.80794c-.7526 1.13731-.6397 2.01614-.6397 2.01614l-1.2043-2.72265s1.6935.20679 1.844.17231c.1506-.0344 12.1575 2.05271 10.6366 1.81477-3.6542-.57166-2.8715 12.1999-2.8465 13.246.025 1.03367.2257 2.75712.1505 4.27353-.075 1.51641 0 2.61926 0 3.85997 0 1.2407-2.509-2.46958-2.509-4.53742s-.301-9.78777-.2258-11.85561c.075-2.06784-.9784-4.89388-1.43-5.30745-.4516-.41358-3.7758-.95959-3.7758-.95959z" fill="#e4cd6c"/><path d="m-1549.3434-298.89644-.1626-.12899c.128.0576.2283.12294.2822.17231.4516.41357 1.5053 3.23962 1.43 5.30746-.075 2.06783.2259 9.78777.2259 11.85561 0 1.72536 1.7358 4.591 2.3144 4.77327-.7191-2.55158-1.8174-4.2382-1.7688-5.30746.053-1.16975-.1161-8.14685-.1693-9.21911-.053-1.07227.2628-3.20769-.057-4.66987-.3193-1.46219-2.0953-2.78322-2.0953-2.78322z" fill="#a80"/><path d="m-1515.3541-297.50902c7.9809 6.21916 6.4236 13.79049 6.567 14.57826.1505.82715-.3011 22.81517-.3011 22.81517s.6688-10.14686 1.1102-19.33429c-.013-2.65648-.034-7.83942-.2823-9.89117-.2319-1.91356-1.583-4.51163-2.8977-6.01397-.4109-.46945-1.6604-1.3575-2.2504-1.66892-1.2704-.67073-1.9457-.48508-1.9457-.48508z" fill="#a0892c"/><path d="m-1496.75-305.625-2.4375.4375v.0625c.464.0338.9434.0574 1.4063.0937 5.5443.6751 12.074.80475 16.375 3.0625.5829 1.13559-2.5724 1.5758-3.875 2-4.4385.81712-8.9801 1.39668-13.5938 1.78125.363 16.20315-.26 35.55223-1.0933 50.56255h18.9701l.9675-54.0313c.0002-.0118.0006-.0195 0-.0312-.1003-1.73219-8.2371-2.99715-16.7188-3.9375z" opacity=".19469"/><path d="m-1506.3438-306.59375c.1609.58187.208.70036.3126 1.0625 2.7695.12874 5.5098.28468 8.25.5 5.5443.6751 12.074.80475 16.375 3.0625.5829 1.13559-2.5724 1.5758-3.875 2-5.958 1.09684-12.1398 1.7347-18.375 2.09375-.2341.14412-.4847.34404-.75.5625.4232 3.91555.5869 8.00062.9687 11.03125.4399 3.4908-1.2216 23.59817-3.5202 38.65625h25.9595l.9675-54.03125v-.0312c-.1404-2.42633-15.8186-3.91868-26.3126-4.90625z" opacity=".19469"/><path d="m-1481.3527-301.92041c-.4044.88387-2.7929 1.48989-3.9327 1.86106-5.9579 1.09684-12.1296 1.82941-18.3648 2.18846-1.3236.81469-1.9811 2.07561-2.465 5.15237.4999-2.75852 1.1497-2.89532 2.465-3.70489 2.6329-.15161 3.1847-1.87088 7.8536-.62084 1.8256.48881 3.1769 1.66209 5.9692-.30763 1.3154-.92788 2.9298-.87701 4.542-1.17382 2.2375-.83013 6.5506-2.58842 3.9327-3.39471zm-77.2605.31018c-.315.75892-.027 1.92078.9784 2.17123 1.3299 1.34937 2.5042 1.20956 3.7069 1.01668l-.715-1.6198c-1.0208-.24969-2.0178-.52372-2.9919-.84437-.4105-.10234-.8668-.257-.9784-.72374zm5.532 1.92998c-.3264.52856-.468.98988-.5268 1.32686 1.8482.40744 3.7586.72242 5.7013.96499-.166-.22442-.5976-.95829-.9408-1.56811-1.4394-.19753-2.8474-.43284-4.2337-.72374zm9.8034 1.2924c-.3057.18047-1.0823.95721-1.0349 1.36133 4.1885.36693 8.467.54088 12.5882.79266 5.5591 2.66337 10.9357.85691 16.3704.17233 5.4869 4.07447 6.4634 8.37569 6.5858 10.92508-.063-2.92493-.8837-8.13823-6.5858-12.37257-5.4721.0493-10.8848-.21855-16.2951-.36114-3.7829-.23113-7.7722-.2107-11.6286-.51769z" fill="#fc0"/><path d="m-1554.5-303.90625c-3.3964.68087-5.5829 1.45756-5.3438 2.21875-.0006.0118-.0006.0195 0 .0312.8946 19.0372 1.5761 37.68475 1.9656 54.0313h13.9782c.098-7.76815.9951-12.97328-4.0062-13.31255-5.7479-.38992-5.5567-11.28689-5.3438-31.5625 0 0-.2079-3.14478-.7188-7.375-.2226-.0509-.4355-.10367-.6562-.15625l.7188 1.625c-1.2028.19288-2.389.31812-3.7188-1.03125-.9922-.24731-1.2649-1.36582-.9688-2.125-.01-.0202.01-.01 0-.0312.011-.46501.879-.97333 1.75-1.15625.8062-.21095 1.6158-.38219 2.4376-.5625-.03-.2036-.064-.38812-.094-.59375z" fill="#d4aa00" opacity=".19469"/><path d="m-1527.9688-306.84375c-3.8659.16376-10.2454.82262-15.125 1.34375 0 .1785.027.34874.031.53125 4.5472-.40289 9.1804-.58571 13.7813-.71875-.01-.30644 1.3217-.86529 1.3124-1.15625zm-13.9374 10c.0003.002 0 .0625 0 .0625.7527 13.50989.1562 24.11789.1562 26.875 0 2.75712 6.4688 9.10523 6.4688 14.34375 0 2.12695.1616 4.97154.3672 7.9375h7.9875c.4639-6.76469.015-14.01676-.2297-20.0625-.6022-14.88845-2.5568-14.46579-2.4063-22.875.026-1.45825.082-3.16985.125-4.8125-.7584-.21177-1.5166-.50864-2.2813-.875-3.3377-.20392-6.7749-.34809-10.1874-.59375z" fill="#c87137" opacity=".247788"/><path d="m-1519.5455-303.43799c-13.1612.1062-23.8083.91454-23.7978 1.76923.01.85469 10.6751 1.4589 23.8363 1.3527 13.1613-.10619 23.8683-.88283 23.8578-1.73751-.011-.8547-10.735-1.49061-23.8963-1.38442zm-.9716.32296c3.674-.0296 17.2933.0825 17.3042.70875.012.62622-7.89 1.21721-17.7908 1.27403-9.9009.0568-17.9811-.44251-17.9919-1.06873-.012-.62624 14.8045-.88442 18.4785-.91405z" fill="#786721" opacity=".190265"/><path d="m-1556.9062-303.40625c-.4449.12643-.8649.24706-1.2188.375-.028.0103-.066.0521-.094.0625-.1636.0608-.3277.12652-.4687.1875-.019.008-.043.0229-.062.0312-.1428.0634-.2894.12395-.4062.1875-.058.0316-.1047.0621-.1563.0937-.066.0405-.1329.0533-.1875.0937-.1017.076-.1898.17417-.25.25-.085.10649-.1276.20668-.125.3125.0006.0353.022.0898.031.125v.0312c.034.72313.072 1.43057.094 2.15625.01.10817-.01.23578 0 .34375.8794 20.17817 1.1696 36.6636.8731 51.53145h8.9859c.085-1.44631-.1265-2.85729-.2965-4.21895-1.2042-9.64992-2.8529-4.6976-5.5625-15.3125-2.3886-9.3577-1.8539-19.72743-1.2812-33.53125-.2023-.0627-.3936-.1216-.5938-.1875-1.8808-.46884-.6538-1.5335.6875-1.84375.01-.24036.022-.445.031-.6875z" fill="#ffd42a" opacity=".176991"/><path d="m-1521.0938-297.5c.4453 12.51826 2.446 31.80745 2.1548 40.875-.032.98376-.8976 8.07619-.9984 9h6.9891c.8709-5.00563 1.1104-8.94675 1.4483-9.875 1.0538-2.89497-2.7131-19.83724-2.5625-29.625.07-4.56456.359-7.04642.5625-8.84375-.5503-.52987-1.1608-1.02411-1.8438-1.53125-1.9139.0173-3.836.0114-5.75 0z" fill="#c8ab37" opacity=".137168"/></g><g transform="matrix(1 0 0 -1.0143075 79.711671 1348.8406)"><path d="m-1360-307.63782h80v80h-80z" fill="none" opacity=".247788"/><g transform="translate(-25.1674 -29.535687)"><path d="m-1333.8326-278.10213c-.3559 14.23656-1 27.55403-1 39.98718 0 22 1.013 23.01282 1 40.01282h78c1.0131-40 0-80 0-80z" fill="url(#j)"/><path d="m-1306-307.625c-4 36 3.1489 38.31312 3.5312 41.34375.4406 3.4908-1.229 23.59817-3.5312 38.65625h26.0001s.2348-15.59537.4061-32.5625c.089-26.57146-.4062-47.4375-.4062-47.4375z" opacity=".19469" transform="translate(24.1673 29.522867)"/><path d="m-1333.8326-278.10213c-.3559 14.23656-1 27.56685-1 40 0 22 1.013 23 1 40h15c.098-7.76815 1.0091-12.97323-4-13.3125-5.7569-.38992 3.7867-46.41189 4-66.6875z" fill="#d4aa00" opacity=".19469"/><path d="m-1309.8326-278.10213c1 8 1.0246 7.21195.875 10.83093-.6542 15.82206-7.7217 44.11789-7.7217 46.875 0 2.75712 6.4789 9.10523 6.4789 14.34375 0 2.12695.1619 4.98436.3678 7.95032h8c.4646-6.76469.015-14.02958-.2301-20.07532-.6031-14.88845-.9939-31.92137-.5632-47.875.1086-4.02379-.2067-5.04968.7933-12.04968z" fill="#c87137" opacity=".247788"/><path d="m-1332.8326-278.10213.016 1.96409c-.3579 14.08163-2.0165 25.72291-2.0165 38.03591 0 5.5.063 9.67188.1562 13.125v.15625c.9529 12.30444 1.9176 23.05177 1.8443 26.71875h8c.085-1.44631-1.0959-15.35775-2.0005-23-.7924-6.69452-3.0393-12.55182-3.0884-19.29289-.091-12.4451 6.0889-30.70711 5.0889-37.70711z" fill="#ffd42a" opacity=".176991"/><path d="m-1294.8326-278.10213c-3 16 1.2916 61.91963.9999 70.98718-.032.98376-.899 8.08901-.9999 9.01282h7c.8722-5.00563 1.1121-8.95957 1.4505-9.88782 1.0555-2.89497-2.7173-19.83724-2.5665-29.625.07-4.56456-1.884-28.48718 1.116-40.48718z" fill="#c8ab37" opacity=".137168"/><path d="m-1274.8326-278.10213c-3 25 5.907 23.43861 6 33.98718.178 20.20065-5.4517 36.15182-6 46.01282l19-.00002c1.0131-40 0-79.99998 0-79.99998z" opacity=".19469"/></g></g><g transform="matrix(1 0 0 1.0110485 79.711671 1810.3258)"><path d="m-1360-307.63782h80v80h-80z" fill="none" opacity=".247788"/><g transform="translate(-25.1674 -29.535687)"><path d="m-1333.8326-278.10213c-.3559 14.23656-1 27.55403-1 39.98718 0 22 1.013 23.01282 1 40.01282h78c1.0131-40 0-80 0-80z" fill="url(#j)"/><path d="m-1306-307.625c-4 36 3.1489 38.31312 3.5312 41.34375.4406 3.4908-1.229 23.59817-3.5312 38.65625h26.0001s.2348-15.59537.4061-32.5625c.089-26.57146-.4062-47.4375-.4062-47.4375z" opacity=".19469" transform="translate(24.1673 29.522867)"/><path d="m-1333.8326-278.10213c-.3559 14.23656-1 27.56685-1 40 0 22 1.013 23 1 40h15c.098-7.76815 1.0091-12.97323-4-13.3125-5.7569-.38992 3.7867-46.41189 4-66.6875z" fill="#d4aa00" opacity=".19469"/><path d="m-1309.8326-278.10213c1 8 1.0246 7.21195.875 10.83093-.6542 15.82206-7.7217 44.11789-7.7217 46.875 0 2.75712 6.4789 9.10523 6.4789 14.34375 0 2.12695.1619 4.98436.3678 7.95032h8c.4646-6.76469.015-14.02958-.2301-20.07532-.6031-14.88845-.9939-31.92137-.5632-47.875.1086-4.02379-.2067-5.04968.7933-12.04968z" fill="#c87137" opacity=".247788"/><path d="m-1332.8326-278.10213.016 1.96409c-.3579 14.08163-2.0165 25.72291-2.0165 38.03591 0 5.5.063 9.67188.1562 13.125v.15625c.9529 12.30444 1.9176 23.05177 1.8443 26.71875h8c.085-1.44631-1.0959-15.35775-2.0005-23-.7924-6.69452-3.0393-12.55182-3.0884-19.29289-.091-12.4451 6.0889-30.70711 5.0889-37.70711z" fill="#ffd42a" opacity=".176991"/><path d="m-1294.8326-278.10213c-3 16 1.2916 61.91963.9999 70.98718-.032.98376-.899 8.08901-.9999 9.01282h7c.8722-5.00563 1.1121-8.95957 1.4505-9.88782 1.0555-2.89497-2.7173-19.83724-2.5665-29.625.07-4.56456-1.884-28.48718 1.116-40.48718z" fill="#c8ab37" opacity=".137168"/><path d="m-1274.8326-278.10213c-3 25 5.907 23.43861 6 33.98718.178 20.20065-5.4517 36.15182-6 46.01282l19-.00002c1.0131-40 0-79.99998 0-79.99998z" opacity=".19469"/></g></g><g transform="matrix(1.0015605 0 0 1 282.02057 1747.7979)"><path d="m-1520.375-307.625c-.5192.0473-1.1453.37764-1.5.375-.414-.004-2.5363.57679-2.875 1.09375-.3386.51696-.375 1.78125-.375 1.78125s-.8416-2.00781-1.7812-2.53125c-.432-.24065-.995-.14594-1.5-.125-10.6489.44166-32.1658 3.02631-31.4376 5.34375-.0006.0118-.0005.0195 0 .0312 1.0016 21.31556 1.2803 38.56412.9672 54.0313h77.8784c-.023-17.92711.9045-35.89464.9984-54.0313.0001-.0118 0-.0195 0-.0312-.1553-2.68735-19.6709-4.55655-29.7188-5.59375-2.3499-.24257-4.7307-.0709-7.0937-.15625-.8878-.0321-1.77-.16063-2.6563-.1875h-.9062z" fill="url(#k)"/><path d="m-1523.9689-305.84376c-11.0646.32567-22.6559.44318-32.9062 3.125-1.3693.28756-2.6657 1.36617-.75 1.84375 7.7968 2.56647 17.1968 2.65537 25.9062 3.1875 5.4103.14262 10.9029.23678 16.375.1875 7.9809 5.9265 6.4192 13.77466 6.5626 14.5625.1505.82714-.3126 22.8125-.3126 22.8125s2.8126-25.83861 2.8126-30.25c0-3.85997 1.1123-6.56893 2.625-7.5 5.2171-.30042 10.3973-.79545 15.4374-1.59375l2.6876-.21875s.253 3.68911.094 7.90625c-.1592 4.21714-.062 7.78125-.062 7.78125s1.4032-4.88241 1.5625-6.40625c.1592-1.52384 1-4.81217 1-5.34375 0-.46256-.2394-3.80495-.3125-4.78125 1.154-.32379 2.1983-.7466 1.8438-1.4375-4.301-2.25775-10.8307-2.38739-16.375-3.0625-7.556-.59373-15.2441-.83036-22.9063-.8125-1.0946.002-2.1886-.0136-3.2814 0z" fill="url(#l)"/><path d="m-188.26719 549.4325c0 2.05025-19.86555 3.71231-44.37095 3.71231s-44.37095-1.66206-44.37095-3.71231c0-2.05026 19.86555-3.71232 44.37095-3.71232s44.37095 1.66206 44.37095 3.71232z" fill="#ffe680" transform="matrix(.79284157 0 0 .86652311 -1334.3743 -777.96695)"/><path d="m-188.26719 549.4325c0 2.05025-19.86555 3.71231-44.37095 3.71231s-44.37095-1.66206-44.37095-3.71231c0-2.05026 19.86555-3.71232 44.37095-3.71232s44.37095 1.66206 44.37095 3.71232z" fill="url(#n)" opacity=".283186" transform="matrix(.72747118 0 0 .50547181 -1349.4489 -579.56923)"/><path d="m-1517.8144-303.5054c-13.1612.12016-23.8083 1.03478-23.7978 2.00184.011.96705 10.6751 1.6507 23.8364 1.53055 13.1612-.12015 23.8683-.99891 23.8578-1.96596-.011-.96705-10.7351-1.68657-23.8964-1.56643zm-1.1221.84792c3.674-.0335 6.6124.22539 6.6164.59515.01.36975-2.9278.7187-6.6018.75225-3.674.0335-6.6723-.26127-6.6763-.63103-.01-.36976 2.9877-.68284 6.6617-.71637z" fill="#786721" opacity=".283186"/><path d="m-1553.0059-299.80794c-.7526 1.13731-.6397 2.01614-.6397 2.01614l-1.2043-2.72265s1.6935.20679 1.844.17231c.1506-.0344 12.1575 2.05271 10.6366 1.81477-3.6542-.57166-2.8715 12.1999-2.8465 13.246.025 1.03367.2257 2.75712.1505 4.27353-.075 1.51641 0 2.61926 0 3.85997 0 1.2407-2.509-2.46958-2.509-4.53742s-.301-9.78777-.2258-11.85561c.075-2.06784-.9784-4.89388-1.43-5.30745-.4516-.41358-3.7758-.95959-3.7758-.95959z" fill="#e4cd6c"/><path d="m-1549.3434-298.89644-.1626-.12899c.128.0576.2283.12294.2822.17231.4516.41357 1.5053 3.23962 1.43 5.30746-.075 2.06783.2259 9.78777.2259 11.85561 0 1.72536 1.7358 4.591 2.3144 4.77327-.7191-2.55158-1.8174-4.2382-1.7688-5.30746.053-1.16975-.1161-8.14685-.1693-9.21911-.053-1.07227.2628-3.20769-.057-4.66987-.3193-1.46219-2.0953-2.78322-2.0953-2.78322z" fill="#a80"/><path d="m-1515.3541-297.50902c7.9809 6.21916 6.4236 13.79049 6.567 14.57826.1505.82715-.3011 22.81517-.3011 22.81517s.6688-10.14686 1.1102-19.33429c-.013-2.65648-.034-7.83942-.2823-9.89117-.2319-1.91356-1.583-4.51163-2.8977-6.01397-.4109-.46945-1.6604-1.3575-2.2504-1.66892-1.2704-.67073-1.9457-.48508-1.9457-.48508z" fill="#a0892c"/><path d="m-1496.75-305.625-2.4375.4375v.0625c.464.0338.9434.0574 1.4063.0937 5.5443.6751 12.074.80475 16.375 3.0625.5829 1.13559-2.5724 1.5758-3.875 2-4.4385.81712-8.9801 1.39668-13.5938 1.78125.363 16.20315-.26 35.55223-1.0933 50.56255h18.9701l.9675-54.0313c.0002-.0118.0006-.0195 0-.0312-.1003-1.73219-8.2371-2.99715-16.7188-3.9375z" opacity=".19469"/><path d="m-1506.3438-306.59375c.1609.58187.208.70036.3126 1.0625 2.7695.12874 5.5098.28468 8.25.5 5.5443.6751 12.074.80475 16.375 3.0625.5829 1.13559-2.5724 1.5758-3.875 2-5.958 1.09684-12.1398 1.7347-18.375 2.09375-.2341.14412-.4847.34404-.75.5625.4232 3.91555.5869 8.00062.9687 11.03125.4399 3.4908-1.2216 23.59817-3.5202 38.65625h25.9595l.9675-54.03125v-.0312c-.1404-2.42633-15.8186-3.91868-26.3126-4.90625z" opacity=".19469"/><path d="m-1481.3527-301.92041c-.4044.88387-2.7929 1.48989-3.9327 1.86106-5.9579 1.09684-12.1296 1.82941-18.3648 2.18846-1.3236.81469-1.9811 2.07561-2.465 5.15237.4999-2.75852 1.1497-2.89532 2.465-3.70489 2.6329-.15161 3.1847-1.87088 7.8536-.62084 1.8256.48881 3.1769 1.66209 5.9692-.30763 1.3154-.92788 2.9298-.87701 4.542-1.17382 2.2375-.83013 6.5506-2.58842 3.9327-3.39471zm-77.2605.31018c-.315.75892-.027 1.92078.9784 2.17123 1.3299 1.34937 2.5042 1.20956 3.7069 1.01668l-.715-1.6198c-1.0208-.24969-2.0178-.52372-2.9919-.84437-.4105-.10234-.8668-.257-.9784-.72374zm5.532 1.92998c-.3264.52856-.468.98988-.5268 1.32686 1.8482.40744 3.7586.72242 5.7013.96499-.166-.22442-.5976-.95829-.9408-1.56811-1.4394-.19753-2.8474-.43284-4.2337-.72374zm9.8034 1.2924c-.3057.18047-1.0823.95721-1.0349 1.36133 4.1885.36693 8.467.54088 12.5882.79266 5.5591 2.66337 10.9357.85691 16.3704.17233 5.4869 4.07447 6.4634 8.37569 6.5858 10.92508-.063-2.92493-.8837-8.13823-6.5858-12.37257-5.4721.0493-10.8848-.21855-16.2951-.36114-3.7829-.23113-7.7722-.2107-11.6286-.51769z" fill="#fc0"/><path d="m-1554.5-303.90625c-3.3964.68087-5.5829 1.45756-5.3438 2.21875-.0006.0118-.0006.0195 0 .0312.8946 19.0372 1.5761 37.68475 1.9656 54.0313h13.9782c.098-7.76815.9951-12.97328-4.0062-13.31255-5.7479-.38992-5.5567-11.28689-5.3438-31.5625 0 0-.2079-3.14478-.7188-7.375-.2226-.0509-.4355-.10367-.6562-.15625l.7188 1.625c-1.2028.19288-2.389.31812-3.7188-1.03125-.9922-.24731-1.2649-1.36582-.9688-2.125-.01-.0202.01-.01 0-.0312.011-.46501.879-.97333 1.75-1.15625.8062-.21095 1.6158-.38219 2.4376-.5625-.03-.2036-.064-.38812-.094-.59375z" fill="#d4aa00" opacity=".19469"/><path d="m-1527.9688-306.84375c-3.8659.16376-10.2454.82262-15.125 1.34375 0 .1785.027.34874.031.53125 4.5472-.40289 9.1804-.58571 13.7813-.71875-.01-.30644 1.3217-.86529 1.3124-1.15625zm-13.9374 10c.0003.002 0 .0625 0 .0625.7527 13.50989.1562 24.11789.1562 26.875 0 2.75712 6.4688 9.10523 6.4688 14.34375 0 2.12695.1616 4.97154.3672 7.9375h7.9875c.4639-6.76469.015-14.01676-.2297-20.0625-.6022-14.88845-2.5568-14.46579-2.4063-22.875.026-1.45825.082-3.16985.125-4.8125-.7584-.21177-1.5166-.50864-2.2813-.875-3.3377-.20392-6.7749-.34809-10.1874-.59375z" fill="#c87137" opacity=".247788"/><path d="m-1519.5455-303.43799c-13.1612.1062-23.8083.91454-23.7978 1.76923.01.85469 10.6751 1.4589 23.8363 1.3527 13.1613-.10619 23.8683-.88283 23.8578-1.73751-.011-.8547-10.735-1.49061-23.8963-1.38442zm-.9716.32296c3.674-.0296 17.2933.0825 17.3042.70875.012.62622-7.89 1.21721-17.7908 1.27403-9.9009.0568-17.9811-.44251-17.9919-1.06873-.012-.62624 14.8045-.88442 18.4785-.91405z" fill="#786721" opacity=".190265"/><path d="m-1556.9062-303.40625c-.4449.12643-.8649.24706-1.2188.375-.028.0103-.066.0521-.094.0625-.1636.0608-.3277.12652-.4687.1875-.019.008-.043.0229-.062.0312-.1428.0634-.2894.12395-.4062.1875-.058.0316-.1047.0621-.1563.0937-.066.0405-.1329.0533-.1875.0937-.1017.076-.1898.17417-.25.25-.085.10649-.1276.20668-.125.3125.0006.0353.022.0898.031.125v.0312c.034.72313.072 1.43057.094 2.15625.01.10817-.01.23578 0 .34375.8794 20.17817 1.1696 36.6636.8731 51.53145h8.9859c.085-1.44631-.1265-2.85729-.2965-4.21895-1.2042-9.64992-2.8529-4.6976-5.5625-15.3125-2.3886-9.3577-1.8539-19.72743-1.2812-33.53125-.2023-.0627-.3936-.1216-.5938-.1875-1.8808-.46884-.6538-1.5335.6875-1.84375.01-.24036.022-.445.031-.6875z" fill="#ffd42a" opacity=".176991"/><path d="m-1521.0938-297.5c.4453 12.51826 2.446 31.80745 2.1548 40.875-.032.98376-.8976 8.07619-.9984 9h6.9891c.8709-5.00563 1.1104-8.94675 1.4483-9.875 1.0538-2.89497-2.7131-19.83724-2.5625-29.625.07-4.56456.359-7.04642.5625-8.84375-.5503-.52987-1.1608-1.02411-1.8438-1.53125-1.9139.0173-3.836.0114-5.75 0z" fill="#c8ab37" opacity=".137168"/></g></g><path d="m1757.8125-2039.9375c-1.2067.1098-2.7376.8811-3.5625.875-.9618-.01-5.8999 1.3317-6.6875 2.5313-.7866 1.1995-.8437 4.125-.8437 4.125s-1.9725-4.6604-4.1563-5.875c-1.0041-.5585-2.2953-.3299-3.4687-.2813-24.7494 1.0249-74.7232 7.0287-73.0313 12.4063 0 .027-.0009.035 0 .062 2.2539 47.8837 2.9318 86.8999 2.3125 121.9063h-.062c-.8259 33.0357-2.3125 63.9616-2.3125 92.8125 0 49.7184 2.2241 53.4725 2.3125 90.0625 0 .9804.0007 1.7206 0 2.75-.088 36.5883-2.3125 40.3442-2.3125 90.0625 0 28.7654 1.4852 59.6061 2.3125 92.5312v.3126c-.053 37.4684-2.3125 40.7984-2.3125 90.9374 0 28.2927 1.4149 58.5908 2.25 90.9063-.8351 32.3166-2.25 62.6448-2.25 90.9375 0 50.8403 2.3232 53.4236 2.3125 92.4062 0 .1613.0002.275 0 .4376-.6602 32.1158-2.3167 60.9164-2.3125 89.5312 0 8.6707.1066 17.3598.3438 26.125 0 .6929-.063 1.2642-.063 1.6562 0 6.2739 41.0645 21.4688 92.1876 21.4688 49.3107 0 90.2991-14.2531 93.0937-20.2188.023-.077.065-.221.062-.375v-.6562c-.023-39.1682-2.245-78.3034-2.3125-117.5312.0007-.024-.0007-.07 0-.094-.0002-.1207.0002-.2231 0-.3438.394-15.6544.6476-31.2475.8125-46.375.036-.055.089-.1008.125-.1562.2576-.3926.5103-.7993.7812-1.1875.373-.5338.7592-1.0682 1.1563-1.5937.031-.041.062-.084.094-.125.8506-1.1191 1.7388-2.2323 2.6876-3.3126.631-.719 1.3-1.4238 1.9687-2.125.8996-.942 1.8224-1.8722 2.7813-2.7812.075-.071.1437-.148.2187-.2188.4821-.4537.9741-.8985 1.4687-1.3437.2398-.216.4764-.4423.7188-.6563.2101-.1851.4442-.3475.6562-.5312.4012-.3478.8113-.689 1.2188-1.0312.7309-.6131 1.4702-1.2176 2.2188-1.8126.3668-.2918.7233-.5875 1.0937-.875.4007-.3107.8144-.6007 1.2187-.9062 1.4646-1.1073 2.9438-2.1826 4.4376-3.2188 1.1021-.7641 2.2072-1.5255 3.3124-2.25.8836-.5791 1.7774-1.1345 2.6563-1.6874.561-.353 1.0989-.7205 1.6563-1.0626.7005-.4299 1.4017-.8374 2.0937-1.25.6763-.4032 1.3345-.8011 2-1.1874.9216-.535 1.8243-1.0296 2.7187-1.5313 1.7482-.9813 3.395-1.8988 5-2.75.2367-.1255.4547-.2212.6876-.3437.8419-.4435 1.65-.8763 2.4374-1.2813.7445-.3828 1.3118-.6525 2-1 1.9572-.9903 3.6786-1.8608 5.0938-2.5625 1.3942-.6912 2.4989-.5731 3.2188-.9688 5.7724-.3832 9.728-14.8884 8.875-32.5-.8562-17.6757-6.256-31.7811-12.0626-31.5-.117.01-.2281.014-.3437.031h-.031c-.411.065-.7967.201-1.1874.4063l-40.5 12.9062s-4.9255 2.2861-10.4376 5.1875c-.2709-29.5212-.728-49.8261-.7812-51.9687.1415-5.7792 2.1341-92.5272-.062-181.625 0 0-.0009-.8974 0-.9376v-.9687c.1276-5.2156 2.2246-92.778 0-182.375 2.2666-91.3007.051-181.4686 0-183.5313-.0007-.024 0-.7187 0-.7187.065-40.444 2.1002-80.9949 2.3125-121.9063.0002-.027 0-.035 0-.062-.3611-6.236-45.7418-10.562-69.0938-12.9688-5.4617-.5629-10.9768-.1769-16.4687-.375-2.0631-.074-4.0968-.3751-6.1563-.4375h-2.0937z" fill="url(#f)" stroke="#000" stroke-linejoin="round" stroke-width="8.005866" transform="matrix(.99999999283 0 0 .99853516843 -2030.61755884272 1964.06735057202)"/><g transform="matrix(2.32045927748 0 0 2.3170838 3626.56924483639 1369.06937964623)"><path d="m-1719.0001-247.625c-.2818 13.91731-1.0017 26.39291-.9999 38.78125.0005 3.73661.054 7.47267.1562 11.25 0 .29861-.031.54978-.031.71875 0 2.70368 17.6876 9.25 39.7188 9.25 21.2507 0 38.9211-6.14787 40.125-8.71875.018.0862.033-.0235.031-.15625 0-.13273 0-.28125 0-.28125-.01-16.9416-.977-33.87608-.9993-50.84375z" fill="url(#g)"/><path d="m-1659.9995-247.625c-.6192 11.15161-1.6281 19.98222-.8755 22.96875 1.916 7.60335 6.5919-3.12962 7.6562-1.375 1.0644 1.75462 2.1151 27.68429-2.7812 30.21875-4.8964 2.53445-9.137 4.85263-19.7812 5.4375-10.6442.58488-10.0313 2.34375-10.0313 2.34375l.062.25c1.8238.0904 3.697.15625 5.5938.15625 21.2508 0 38.9211-6.14786 40.125-8.71875.018.0862.036-.0227.031-.15625 0-.13355-.031-.28125-.031-.28125l-.9676-50.84375z" opacity=".19469"/><path d="m-1666.9996-247.625c-1.0391 6.80738-2.6738 12.67312-3.4692 15.34375-2.5544 8.57814-5.9627 15.80184-2.3437 18.53125 3.6191 2.72941 7.459-.01 9.375 2.71875 1.916 2.72941-.2052 11.11434-4.25 13.84375s-13.2035 6.25-21.7187 6.25c-8.5154 0-12.3438-1.1875-12.3438-1.1875s-.8872-.41536-2.2188-1.03125c-.2262.83753-.4887 1.7681-.7812 2.78125 6.7523 1.55475 15.284 2.75 24.5938 2.75 21.2507 0 38.9211-6.14787 40.125-8.71875.019.0862.036-.0227.031-.15625 0-.13355-.031-.28125-.031-.28125l-.9681-50.84375zm-51.7816 48.6875c-.2399-.0147-.4965.0415-.75.125-.1033.43618-.2001.83141-.3126 1.21875 0 .29861-.062.51852-.062.6875 0 1.19636 3.4791 3.16693 9.25 4.96875.2398-1.20796.5875-2.78998 1.125-3.625-3.6097-1.54717-7.7725-3.28479-9.25-3.375z" opacity=".19469"/><path d="m-1718.0001-247.625c.5574 23.39261.4853 42.01765-1.8437 50.03125 0 .29861-.031.51852-.031.6875 0 .8919 1.942 2.20748 5.3125 3.5625 1.7249-1.0975 3.5068-2.89817 4.5313-5.96875 2.3416-7.01849-4.0218-14.47175-.25-20.28125 1.3141-2.02404 5.5185-1.27763 6.8124-3.3125 3.8584-6.06733-.1992-11.31462-.625-21.0625-.055-1.26623.079-2.49654.094-3.65625z" fill="#d4aa00" opacity=".19469"/><path d="m-1694.9999-247.625c.3008 4.339.7369 8.99087.4687 12.59375-.4517 6.06566-3.6193 11.86611-3.4688 15.3125.1506 3.4464.4604 3.99683 1.0625 10.0625.6021 6.06565.3093 13.64716-.5937 14.75-.9032 1.10286-2.4204 1.11038-1.9688 1.9375.2363.43282.7602 2.13954 1.25 3.875 2.6965.43756 5.5792.80902 8.5938 1.0625-1.2096-3.15774-2.0765-6.96276-.6563-9.90625 2.8601-5.9278 3.7813-5.5356 3.7813-13.53125 0-7.99564-2.5683-11.95984-2.7188-15.40625-.089-2.04692 1.5717-10.85576 2.2502-20.75z" fill="url(#h)" opacity=".522124"/><path d="m-1679.9997-247.625c-.8591 7.87913-4.4414 13.85793-3.0941 22.125 1.5054 9.23634 3.1701 15.56112 1.0626 20.9375-2.1075 5.37639-3.6049 8.96005-2.25 14.75.1628.69558.3199 1.41224.5 2.125 1.1887.0382 2.4074.0625 3.625.0625 1.7792 0 3.528-.0446 5.25-.125-.564-3.56673-1.4833-7.1596-.5-8.40625 1.9568-2.48142 6.0224-2.76503 4.9687-6.625s-7.2187-4.94186-7.2187-12.9375c0-5.43191 2.8114-21.30062 4.6565-31.90625z" fill="#c8ab37" opacity=".137168"/><path d="m-1719.0001-247.625c-.2791 13.98957-1.0088 26.54924-.9999 39 0 3.66903.056 7.32348.1562 11.03125 0 .29861-.031.54977-.031.71875 0 .0845 0 .15832.031.25.032.0855.095.1901.1563.28125.049.0709.1212.14476.1875.21875.083.0927.172.18405.2812.28125.1094.0972.2402.21126.375.3125.135.10125.2778.20767.4376.3125.3194.20965.6794.43501 1.0937.65625 2.6286-4.54683 3.2802-8.24099 2.9063-13.71875-.4517-6.61708-.4433-9.37184-.5938-15.4375-.1293-5.20977 4.4807-15.10271 5-23.90625z" fill="#ffd42a" opacity=".176991"/><path d="m-1705.3036-241.46188c1.2043 24.12478-3.5205 40.29558-5.3502 49.51606 1.7646.55115 3.7446 1.08751 5.9084 1.58534.701-2.42854 1.3682-4.73964 1.2607-5.10066-.4516-1.51642-1.8189-46.00074-1.8189-46.00074z" fill="#e4cc6c"/><path d="m1700.0938-1156.1875s.2185 6.2179.4062 12.125c-.064-3.9426-.1994-7.981-.4062-12.125zm.4062 12.125c.02 1.2107.024 2.4332.031 3.625.014-.4085.018-.8251.031-1.2187-.043-1.3417-.025-1.2343-.062-2.4063zm-.5938 27.1563c-2.1551 34.7939-9.0563 59.6885-12.2187 75.625 1.5971.4988 3.2865.9836 5.0313 1.4687 1.9683-5.8319 8.8188-27.3971 7.5312-43.0625-.6213-7.5597-.5828-20.9339-.3438-34.0312z" fill="#2b2200" transform="matrix(.43094917 0 0 .43094478 -2437.96 256.78742)"/></g><g transform="matrix(2.3204829 0 0 -2.3170838 2791.23575403402 -282.21749050222)"><path d="m-1360-307.63782h80v80h-80z" fill="none" opacity=".247788"/><g transform="translate(-25.1674 -29.535687)"><path d="m-1333.8326-278.10213c-.3559 14.23656-1 27.55403-1 39.98718 0 22 1.013 23.01282 1 40.01282h78c1.0131-40 0-80 0-80z" fill="url(#j)"/><path d="m-1306-307.625c-4 36 3.1489 38.31312 3.5312 41.34375.4406 3.4908-1.229 23.59817-3.5312 38.65625h26.0001s.2348-15.59537.4061-32.5625c.089-26.57146-.4062-47.4375-.4062-47.4375z" opacity=".19469" transform="translate(24.1673 29.522867)"/><path d="m-1333.8326-278.10213c-.3559 14.23656-1 27.56685-1 40 0 22 1.013 23 1 40h15c.098-7.76815 1.0091-12.97323-4-13.3125-5.7569-.38992 3.7867-46.41189 4-66.6875z" fill="#d4aa00" opacity=".19469"/><path d="m-1309.8326-278.10213c1 8 1.0246 7.21195.875 10.83093-.6542 15.82206-7.7217 44.11789-7.7217 46.875 0 2.75712 6.4789 9.10523 6.4789 14.34375 0 2.12695.1619 4.98436.3678 7.95032h8c.4646-6.76469.015-14.02958-.2301-20.07532-.6031-14.88845-.9939-31.92137-.5632-47.875.1086-4.02379-.2067-5.04968.7933-12.04968z" fill="#c87137" opacity=".247788"/><path d="m-1332.8326-278.10213.016 1.96409c-.3579 14.08163-2.0165 25.72291-2.0165 38.03591 0 5.5.063 9.67188.1562 13.125v.15625c.9529 12.30444 1.9176 23.05177 1.8443 26.71875h8c.085-1.44631-1.0959-15.35775-2.0005-23-.7924-6.69452-3.0393-12.55182-3.0884-19.29289-.091-12.4451 6.0889-30.70711 5.0889-37.70711z" fill="#ffd42a" opacity=".176991"/><path d="m-1294.8326-278.10213c-3 16 1.2916 61.91963.9999 70.98718-.032.98376-.899 8.08901-.9999 9.01282h7c.8722-5.00563 1.1121-8.95957 1.4505-9.88782 1.0555-2.89497-2.7173-19.83724-2.5665-29.625.07-4.56456-1.884-28.48718 1.116-40.48718z" fill="#c8ab37" opacity=".137168"/><path d="m-1274.8326-278.10213c-3 25 5.907 23.43861 6 33.98718.178 20.20065-5.4517 36.15182-6 46.01282l19-.00002c1.0131-40 0-79.99998 0-79.99998z" opacity=".19469"/></g></g><path d="m-1360-307.63782h80v80h-80z" fill="none" opacity=".247788" transform="matrix(2.3204829 0 0 2.3170838 2791.23575403402 774.33275260223)"/><g transform="matrix(2.3204829 0 0 2.3170838 2732.83523269656 707.05463263266)"><path d="m-1333.8326-278.10213c-.3559 14.23656-1 27.55403-1 39.98718 0 22 1.013 23.01282 1 40.01282h78c1.0131-40 0-80 0-80z" fill="url(#j)"/><path d="m-1306-307.625c-4 36 3.1489 38.31312 3.5312 41.34375.4406 3.4908-1.229 23.59817-3.5312 38.65625h26.0001s.2348-15.59537.4061-32.5625c.089-26.57146-.4062-47.4375-.4062-47.4375z" opacity=".19469" transform="translate(24.1673 29.522867)"/><path d="m-1333.8326-278.10213c-.3559 14.23656-1 27.56685-1 40 0 22 1.013 23 1 40h15c.098-7.76815 1.0091-12.97323-4-13.3125-5.7569-.38992 3.7867-46.41189 4-66.6875z" fill="#d4aa00" opacity=".19469"/><path d="m-1309.8326-278.10213c1 8 1.0246 7.21195.875 10.83093-.6542 15.82206-7.7217 44.11789-7.7217 46.875 0 2.75712 6.4789 9.10523 6.4789 14.34375 0 2.12695.1619 4.98436.3678 7.95032h8c.4646-6.76469.015-14.02958-.2301-20.07532-.6031-14.88845-.9939-31.92137-.5632-47.875.1086-4.02379-.2067-5.04968.7933-12.04968z" fill="#c87137" opacity=".247788"/><path d="m-1332.8326-278.10213.016 1.96409c-.3579 14.08163-2.0165 25.72291-2.0165 38.03591 0 5.5.063 9.67188.1562 13.125v.15625c.9529 12.30444 1.9176 23.05177 1.8443 26.71875h8c.085-1.44631-1.0959-15.35775-2.0005-23-.7924-6.69452-3.0393-12.55182-3.0884-19.29289-.091-12.4451 6.0889-30.70711 5.0889-37.70711z" fill="#ffd42a" opacity=".176991"/><path d="m-1294.8326-278.10213c-3 16 1.2916 61.91963.9999 70.98718-.032.98376-.899 8.08901-.9999 9.01282h7c.8722-5.00563 1.1121-8.95957 1.4505-9.88782 1.0555-2.89497-2.7173-19.83724-2.5665-29.625.07-4.56456-1.884-28.48718 1.116-40.48718z" fill="#c8ab37" opacity=".137168"/><path d="m-1274.8326-278.10213c-3 25 5.907 23.43861 6 33.98718.178 20.20065-5.4517 36.15182-6 46.01282l19-.00002c1.0131-40 0-79.99998 0-79.99998z" opacity=".19469"/></g><g transform="matrix(2.32410401357 0 0 2.3170838 3260.68986495354 639.91218718792)"><path d="m-1520.375-307.625c-.5192.0473-1.1453.37764-1.5.375-.414-.004-2.5363.57679-2.875 1.09375-.3386.51696-.375 1.78125-.375 1.78125s-.8416-2.00781-1.7812-2.53125c-.432-.24065-.995-.14594-1.5-.125-10.6489.44166-32.1658 3.02631-31.4376 5.34375-.0006.0118-.0005.0195 0 .0312 1.0016 21.31556 1.2803 38.56412.9672 54.0313h77.8784c-.023-17.92711.9045-35.89464.9984-54.0313.0001-.0118 0-.0195 0-.0312-.1553-2.68735-19.6709-4.55655-29.7188-5.59375-2.3499-.24257-4.7307-.0709-7.0937-.15625-.8878-.0321-1.77-.16063-2.6563-.1875h-.9062z" fill="url(#k)"/><path d="m-1523.9689-305.84376c-11.0646.32567-22.6559.44318-32.9062 3.125-1.3693.28756-2.6657 1.36617-.75 1.84375 7.7968 2.56647 17.1968 2.65537 25.9062 3.1875 5.4103.14262 10.9029.23678 16.375.1875 7.9809 5.9265 6.4192 13.77466 6.5626 14.5625.1505.82714-.3126 22.8125-.3126 22.8125s2.8126-25.83861 2.8126-30.25c0-3.85997 1.1123-6.56893 2.625-7.5 5.2171-.30042 10.3973-.79545 15.4374-1.59375l2.6876-.21875s.253 3.68911.094 7.90625c-.1592 4.21714-.062 7.78125-.062 7.78125s1.4032-4.88241 1.5625-6.40625c.1592-1.52384 1-4.81217 1-5.34375 0-.46256-.2394-3.80495-.3125-4.78125 1.154-.32379 2.1983-.7466 1.8438-1.4375-4.301-2.25775-10.8307-2.38739-16.375-3.0625-7.556-.59373-15.2441-.83036-22.9063-.8125-1.0946.002-2.1886-.0136-3.2814 0z" fill="url(#l)"/><path d="m-188.26719 549.4325c0 2.05025-19.86555 3.71231-44.37095 3.71231s-44.37095-1.66206-44.37095-3.71231c0-2.05026 19.86555-3.71232 44.37095-3.71232s44.37095 1.66206 44.37095 3.71232z" fill="#ffe680" transform="matrix(.79284157 0 0 .86652311 -1334.3743 -777.96695)"/><path d="m-188.26719 549.4325c0 2.05025-19.86555 3.71231-44.37095 3.71231s-44.37095-1.66206-44.37095-3.71231c0-2.05026 19.86555-3.71232 44.37095-3.71232s44.37095 1.66206 44.37095 3.71232z" fill="url(#n)" opacity=".283186" transform="matrix(.72747118 0 0 .50547181 -1349.4489 -579.56923)"/><path d="m-1517.8144-303.5054c-13.1612.12016-23.8083 1.03478-23.7978 2.00184.011.96705 10.6751 1.6507 23.8364 1.53055 13.1612-.12015 23.8683-.99891 23.8578-1.96596-.011-.96705-10.7351-1.68657-23.8964-1.56643zm-1.1221.84792c3.674-.0335 6.6124.22539 6.6164.59515.01.36975-2.9278.7187-6.6018.75225-3.674.0335-6.6723-.26127-6.6763-.63103-.01-.36976 2.9877-.68284 6.6617-.71637z" fill="#786721" opacity=".283186"/><path d="m-1553.0059-299.80794c-.7526 1.13731-.6397 2.01614-.6397 2.01614l-1.2043-2.72265s1.6935.20679 1.844.17231c.1506-.0344 12.1575 2.05271 10.6366 1.81477-3.6542-.57166-2.8715 12.1999-2.8465 13.246.025 1.03367.2257 2.75712.1505 4.27353-.075 1.51641 0 2.61926 0 3.85997 0 1.2407-2.509-2.46958-2.509-4.53742s-.301-9.78777-.2258-11.85561c.075-2.06784-.9784-4.89388-1.43-5.30745-.4516-.41358-3.7758-.95959-3.7758-.95959z" fill="#e4cd6c"/><path d="m-1549.3434-298.89644-.1626-.12899c.128.0576.2283.12294.2822.17231.4516.41357 1.5053 3.23962 1.43 5.30746-.075 2.06783.2259 9.78777.2259 11.85561 0 1.72536 1.7358 4.591 2.3144 4.77327-.7191-2.55158-1.8174-4.2382-1.7688-5.30746.053-1.16975-.1161-8.14685-.1693-9.21911-.053-1.07227.2628-3.20769-.057-4.66987-.3193-1.46219-2.0953-2.78322-2.0953-2.78322z" fill="#a80"/><path d="m-1515.3541-297.50902c7.9809 6.21916 6.4236 13.79049 6.567 14.57826.1505.82715-.3011 22.81517-.3011 22.81517s.6688-10.14686 1.1102-19.33429c-.013-2.65648-.034-7.83942-.2823-9.89117-.2319-1.91356-1.583-4.51163-2.8977-6.01397-.4109-.46945-1.6604-1.3575-2.2504-1.66892-1.2704-.67073-1.9457-.48508-1.9457-.48508z" fill="#a0892c"/><path d="m-1496.75-305.625-2.4375.4375v.0625c.464.0338.9434.0574 1.4063.0937 5.5443.6751 12.074.80475 16.375 3.0625.5829 1.13559-2.5724 1.5758-3.875 2-4.4385.81712-8.9801 1.39668-13.5938 1.78125.363 16.20315-.26 35.55223-1.0933 50.56255h18.9701l.9675-54.0313c.0002-.0118.0006-.0195 0-.0312-.1003-1.73219-8.2371-2.99715-16.7188-3.9375z" opacity=".19469"/><path d="m-1506.3438-306.59375c.1609.58187.208.70036.3126 1.0625 2.7695.12874 5.5098.28468 8.25.5 5.5443.6751 12.074.80475 16.375 3.0625.5829 1.13559-2.5724 1.5758-3.875 2-5.958 1.09684-12.1398 1.7347-18.375 2.09375-.2341.14412-.4847.34404-.75.5625.4232 3.91555.5869 8.00062.9687 11.03125.4399 3.4908-1.2216 23.59817-3.5202 38.65625h25.9595l.9675-54.03125v-.0312c-.1404-2.42633-15.8186-3.91868-26.3126-4.90625z" opacity=".19469"/><path d="m-1481.3527-301.92041c-.4044.88387-2.7929 1.48989-3.9327 1.86106-5.9579 1.09684-12.1296 1.82941-18.3648 2.18846-1.3236.81469-1.9811 2.07561-2.465 5.15237.4999-2.75852 1.1497-2.89532 2.465-3.70489 2.6329-.15161 3.1847-1.87088 7.8536-.62084 1.8256.48881 3.1769 1.66209 5.9692-.30763 1.3154-.92788 2.9298-.87701 4.542-1.17382 2.2375-.83013 6.5506-2.58842 3.9327-3.39471zm-77.2605.31018c-.315.75892-.027 1.92078.9784 2.17123 1.3299 1.34937 2.5042 1.20956 3.7069 1.01668l-.715-1.6198c-1.0208-.24969-2.0178-.52372-2.9919-.84437-.4105-.10234-.8668-.257-.9784-.72374zm5.532 1.92998c-.3264.52856-.468.98988-.5268 1.32686 1.8482.40744 3.7586.72242 5.7013.96499-.166-.22442-.5976-.95829-.9408-1.56811-1.4394-.19753-2.8474-.43284-4.2337-.72374zm9.8034 1.2924c-.3057.18047-1.0823.95721-1.0349 1.36133 4.1885.36693 8.467.54088 12.5882.79266 5.5591 2.66337 10.9357.85691 16.3704.17233 5.4869 4.07447 6.4634 8.37569 6.5858 10.92508-.063-2.92493-.8837-8.13823-6.5858-12.37257-5.4721.0493-10.8848-.21855-16.2951-.36114-3.7829-.23113-7.7722-.2107-11.6286-.51769z" fill="#fc0"/><path d="m-1554.5-303.90625c-3.3964.68087-5.5829 1.45756-5.3438 2.21875-.0006.0118-.0006.0195 0 .0312.8946 19.0372 1.5761 37.68475 1.9656 54.0313h13.9782c.098-7.76815.9951-12.97328-4.0062-13.31255-5.7479-.38992-5.5567-11.28689-5.3438-31.5625 0 0-.2079-3.14478-.7188-7.375-.2226-.0509-.4355-.10367-.6562-.15625l.7188 1.625c-1.2028.19288-2.389.31812-3.7188-1.03125-.9922-.24731-1.2649-1.36582-.9688-2.125-.01-.0202.01-.01 0-.0312.011-.46501.879-.97333 1.75-1.15625.8062-.21095 1.6158-.38219 2.4376-.5625-.03-.2036-.064-.38812-.094-.59375z" fill="#d4aa00" opacity=".19469"/><path d="m-1527.9688-306.84375c-3.8659.16376-10.2454.82262-15.125 1.34375 0 .1785.027.34874.031.53125 4.5472-.40289 9.1804-.58571 13.7813-.71875-.01-.30644 1.3217-.86529 1.3124-1.15625zm-13.9374 10c.0003.002 0 .0625 0 .0625.7527 13.50989.1562 24.11789.1562 26.875 0 2.75712 6.4688 9.10523 6.4688 14.34375 0 2.12695.1616 4.97154.3672 7.9375h7.9875c.4639-6.76469.015-14.01676-.2297-20.0625-.6022-14.88845-2.5568-14.46579-2.4063-22.875.026-1.45825.082-3.16985.125-4.8125-.7584-.21177-1.5166-.50864-2.2813-.875-3.3377-.20392-6.7749-.34809-10.1874-.59375z" fill="#c87137" opacity=".247788"/><path d="m-1519.5455-303.43799c-13.1612.1062-23.8083.91454-23.7978 1.76923.01.85469 10.6751 1.4589 23.8363 1.3527 13.1613-.10619 23.8683-.88283 23.8578-1.73751-.011-.8547-10.735-1.49061-23.8963-1.38442zm-.9716.32296c3.674-.0296 17.2933.0825 17.3042.70875.012.62622-7.89 1.21721-17.7908 1.27403-9.9009.0568-17.9811-.44251-17.9919-1.06873-.012-.62624 14.8045-.88442 18.4785-.91405z" fill="#786721" opacity=".190265"/><path d="m-1556.9062-303.40625c-.4449.12643-.8649.24706-1.2188.375-.028.0103-.066.0521-.094.0625-.1636.0608-.3277.12652-.4687.1875-.019.008-.043.0229-.062.0312-.1428.0634-.2894.12395-.4062.1875-.058.0316-.1047.0621-.1563.0937-.066.0405-.1329.0533-.1875.0937-.1017.076-.1898.17417-.25.25-.085.10649-.1276.20668-.125.3125.0006.0353.022.0898.031.125v.0312c.034.72313.072 1.43057.094 2.15625.01.10817-.01.23578 0 .34375.8794 20.17817 1.1696 36.6636.8731 51.53145h8.9859c.085-1.44631-.1265-2.85729-.2965-4.21895-1.2042-9.64992-2.8529-4.6976-5.5625-15.3125-2.3886-9.3577-1.8539-19.72743-1.2812-33.53125-.2023-.0627-.3936-.1216-.5938-.1875-1.8808-.46884-.6538-1.5335.6875-1.84375.01-.24036.022-.445.031-.6875z" fill="#ffd42a" opacity=".176991"/><path d="m-1521.0938-297.5c.4453 12.51826 2.446 31.80745 2.1548 40.875-.032.98376-.8976 8.07619-.9984 9h6.9891c.8709-5.00563 1.1104-8.94675 1.4483-9.875 1.0538-2.89497-2.7131-19.83724-2.5625-29.625.07-4.56456.359-7.04642.5625-8.84375-.5503-.52987-1.1608-1.02411-1.8438-1.53125-1.9139.0173-3.836.0114-5.75 0z" fill="#c8ab37" opacity=".137168"/></g><g transform="matrix(2.3204829 0 0 -2.3170838 2791.23575403402 -98.71381456077)"><path d="m-1360-307.63782h80v80h-80z" fill="none" opacity=".247788"/><g transform="translate(-25.1674 -29.535687)"><path d="m-1333.8326-278.10213c-.3559 14.23656-1 27.55403-1 39.98718 0 22 1.013 23.01282 1 40.01282h78c1.0131-40 0-80 0-80z" fill="url(#j)"/><path d="m-1306-307.625c-4 36 3.1489 38.31312 3.5312 41.34375.4406 3.4908-1.229 23.59817-3.5312 38.65625h26.0001s.2348-15.59537.4061-32.5625c.089-26.57146-.4062-47.4375-.4062-47.4375z" opacity=".19469" transform="translate(24.1673 29.522867)"/><path d="m-1333.8326-278.10213c-.3559 14.23656-1 27.56685-1 40 0 22 1.013 23 1 40h15c.098-7.76815 1.0091-12.97323-4-13.3125-5.7569-.38992 3.7867-46.41189 4-66.6875z" fill="#d4aa00" opacity=".19469"/><path d="m-1309.8326-278.10213c1 8 1.0246 7.21195.875 10.83093-.6542 15.82206-7.7217 44.11789-7.7217 46.875 0 2.75712 6.4789 9.10523 6.4789 14.34375 0 2.12695.1619 4.98436.3678 7.95032h8c.4646-6.76469.015-14.02958-.2301-20.07532-.6031-14.88845-.9939-31.92137-.5632-47.875.1086-4.02379-.2067-5.04968.7933-12.04968z" fill="#c87137" opacity=".247788"/><path d="m-1332.8326-278.10213.016 1.96409c-.3579 14.08163-2.0165 25.72291-2.0165 38.03591 0 5.5.063 9.67188.1562 13.125v.15625c.9529 12.30444 1.9176 23.05177 1.8443 26.71875h8c.085-1.44631-1.0959-15.35775-2.0005-23-.7924-6.69452-3.0393-12.55182-3.0884-19.29289-.091-12.4451 6.0889-30.70711 5.0889-37.70711z" fill="#ffd42a" opacity=".176991"/><path d="m-1294.8326-278.10213c-3 16 1.2916 61.91963.9999 70.98718-.032.98376-.899 8.08901-.9999 9.01282h7c.8722-5.00563 1.1121-8.95957 1.4505-9.88782 1.0555-2.89497-2.7173-19.83724-2.5665-29.625.07-4.56456-1.884-28.48718 1.116-40.48718z" fill="#c8ab37" opacity=".137168"/><path d="m-1274.8326-278.10213c-3 25 5.907 23.43861 6 33.98718.178 20.20065-5.4517 36.15182-6 46.01282l19-.00002c1.0131-40 0-79.99998 0-79.99998z" opacity=".19469"/></g></g><path d="m-1360-307.63782h80v80h-80z" fill="none" opacity=".247788" transform="matrix(2.3204829 0 0 2.3170838 2791.23575403402 1323.20534730076)"/><g transform="matrix(2.3204829 0 0 2.3170838 2732.83523269656 1254.76868543119)"><path d="m-1333.8326-278.10213c-.3559 14.23656-1 27.55403-1 39.98718 0 22 1.013 23.01282 1 40.01282h78c1.0131-40 0-80 0-80z" fill="url(#j)"/><path d="m-1306-307.625c-4 36 3.1489 38.31312 3.5312 41.34375.4406 3.4908-1.229 23.59817-3.5312 38.65625h26.0001s.2348-15.59537.4061-32.5625c.089-26.57146-.4062-47.4375-.4062-47.4375z" opacity=".19469" transform="translate(24.1673 29.522867)"/><path d="m-1333.8326-278.10213c-.3559 14.23656-1 27.56685-1 40 0 22 1.013 23 1 40h15c.098-7.76815 1.0091-12.97323-4-13.3125-5.7569-.38992 3.7867-46.41189 4-66.6875z" fill="#d4aa00" opacity=".19469"/><path d="m-1309.8326-278.10213c1 8 1.0246 7.21195.875 10.83093-.6542 15.82206-7.7217 44.11789-7.7217 46.875 0 2.75712 6.4789 9.10523 6.4789 14.34375 0 2.12695.1619 4.98436.3678 7.95032h8c.4646-6.76469.015-14.02958-.2301-20.07532-.6031-14.88845-.9939-31.92137-.5632-47.875.1086-4.02379-.2067-5.04968.7933-12.04968z" fill="#c87137" opacity=".247788"/><path d="m-1332.8326-278.10213.016 1.96409c-.3579 14.08163-2.0165 25.72291-2.0165 38.03591 0 5.5.063 9.67188.1562 13.125v.15625c.9529 12.30444 1.9176 23.05177 1.8443 26.71875h8c.085-1.44631-1.0959-15.35775-2.0005-23-.7924-6.69452-3.0393-12.55182-3.0884-19.29289-.091-12.4451 6.0889-30.70711 5.0889-37.70711z" fill="#ffd42a" opacity=".176991"/><path d="m-1294.8326-278.10213c-3 16 1.2916 61.91963.9999 70.98718-.032.98376-.899 8.08901-.9999 9.01282h7c.8722-5.00563 1.1121-8.95957 1.4505-9.88782 1.0555-2.89497-2.7173-19.83724-2.5665-29.625.07-4.56456-1.884-28.48718 1.116-40.48718z" fill="#c8ab37" opacity=".137168"/><path d="m-1274.8326-278.10213c-3 25 5.907 23.43861 6 33.98718.178 20.20065-5.4517 36.15182-6 46.01282l19-.00002c1.0131-40 0-79.99998 0-79.99998z" opacity=".19469"/></g><g transform="translate(-2029.189 1965.4587)"><path d="m1902.3188-1320.56 3.5384 63.9781c-.7198.3956-1.8448.2711-3.239.9623-11.3213 5.6134-42.4503 20.7196-53.9827 41.2008l-4.0268 8.4185c-44.9397 4.1143-41.0851-44.1116-30.118-64.3172 7.8534-14.4693 13.8235-17.1588 23.1298-24.2385 6.6729-5.0765 22.9603-12.7041 22.9603-12.7041z" fill="url(#b)"/><path d="m1856.2904-1272.324c8.6875-.093 18.4375 3.9216 30.4375 10.2708 6.8145 3.6055 11.0927 5.8483 14.1562 7.2829-12.3992 6.1482-41.2157 20.763-52.25 40.3595l-4.0312 8.4033c-14.5491 28.4605-25.4953 1.1524-30.9974-10.7903 4.0906.036 5.7565-3.0712 5.6224-4.1723-.5-4.1083-2.5-16.8067 13-36.9748 7.75-10.0841 15.375-14.2857 24.0625-14.3791z" fill="url(#c)"/><path d="m1902.3125-1320.5625-41.7187 13.3125s-16.2959 7.611-22.9688 12.6875c-9.3063 7.0797-15.2716 9.7807-23.125 24.25-6.499 11.9737-10.514 33.7884-3.3438 48.7187.028-.029.068-.065.094-.094 4.7729-5.3033 3.1771-18.3777 9.1875-38 6.0104-19.6222 33.5866-18.5876 35.5313-21.0625 1.9445-2.4749-6.8741-2.4645-6.3438-6 .4603-3.0689 14.385-12.6649 53.3125-22.3125l-.625-11.5z" fill="url(#d)"/><path d="m1728.5-1463.8877c0 1.1146 1.1141 1.9057 1.0898 3.0038-.02.9218-1.1756 2.1533-1.2127 3.0623-.098 2.4147-.031 10.4427-.2421 12.7524-2.1792 23.8823-10.3789 35.9315-19.885 35.9315-11.1838 0-20.25-24.5124-20.25-54.75s9.0662-54.75 20.25-54.75 20.25 24.5124 20.25 54.75z" fill="url(#e)" transform="matrix(-.51919208 .02514986 .02831628 .58455936 2832.5823 -475.81783)"/><path d="m1902.75-1315.6875c-4.6917.5025-7.7466 12.9156-6.8438 27.7187.9029 14.8032 5.4334 26.4088 10.125 25.9063 4.6917-.5025 7.7779-12.9156 6.875-27.7187-.9028-14.8032-5.4645-26.4088-10.1562-25.9063zm.75 2.8125c3.7452.2131 7.2772 10.3913 8 23.2812.7461 13.3058-1.7794 24.4546-5.6562 24.9063-3.8769.4517-7.629-9.9443-8.375-23.25-.7461-13.3057 1.7793-24.4546 5.6562-24.9063.1212-.014.2542-.038.375-.031z" fill="#c8ab37"/><path d="m1765-1223.6378c0 41.4213-11.4167 75-25.5 75s-25.5-33.5787-25.5-75c0-41.4214 11.4167-75 25.5-75s25.5 33.5786 25.5 75z" fill="#d3bc5f" opacity=".229075" transform="matrix(.22763986 -.02652135 .01489432 .26563324 1526.5557 -917.87601)"/><path d="m1765-1223.6378c0 41.4213-11.4167 75-25.5 75s-25.5-33.5787-25.5-75c0-41.4214 11.4167-75 25.5-75s25.5 33.5786 25.5 75z" fill="#504416" opacity=".229075" transform="matrix(.15304224 -.0178303 .01001345 .17858519 1650.7833 -1041.7918)"/></g></g></svg>